<svg width="210" height="507" viewBox="0 0 210 507" fill="none" xmlns="http://www.w3.org/2000/svg">
<path d="M72.5262 97.3216H134.378V121.66C134.378 125.854 132.712 129.875 129.747 132.84C126.782 135.805 122.761 137.471 118.567 137.471H88.3372C84.1439 137.471 80.1223 135.805 77.1572 132.84C74.192 129.875 72.5262 125.854 72.5262 121.66V97.3216H72.5262Z" fill="#2F2E41"/>
<path d="M154.996 420.689C140.911 434.959 126.804 435.055 112.676 421.149L101.825 325.198L94.2287 421.349C80.1102 432.776 66.953 434.315 55.1642 421.774C43.9186 338.699 37.8061 261.52 47.5684 202.579L26.951 119.024L73.6114 97.3216C83.0077 120.565 68.1881 132.453 101.7 132.055C134.916 131.661 132.435 119.166 131.123 97.3216L174.046 113.831C177.702 115.237 180.683 117.984 182.383 121.513C184.083 125.041 184.372 129.085 183.193 132.82L161.506 201.494C169.855 236.16 161.283 332.594 154.996 420.689Z" fill="#E6E6E6"/>
<path d="M89.8882 504.243C89.8882 504.243 55.2476 507.278 50.6072 505.367C50.3143 505.246 50.0292 505.115 49.7519 504.973C42.8557 501.452 42.6456 491.591 49.091 487.3L62.7601 478.2L50.8237 414.178L96.9415 414.721L89.8882 504.243Z" fill="#2F2E41"/>
<path d="M115.931 504.786C115.931 504.786 150.572 507.82 155.212 505.91C155.505 505.789 155.79 505.658 156.067 505.516C162.964 501.995 163.174 492.134 156.728 487.843L143.059 478.743L159.879 414.721H111.591L115.931 504.786Z" fill="#2F2E41"/>
<path d="M34.5468 276.367L41.4132 303.833C42.2572 307.209 42.0156 310.764 40.7229 313.995C39.4302 317.226 37.1521 319.967 34.2124 321.829V321.829C31.837 323.333 29.1176 324.208 26.3107 324.37C23.5037 324.532 20.7018 323.976 18.1692 322.755C15.6366 321.534 13.4568 319.687 11.8355 317.39C10.2142 315.093 9.20486 312.421 8.90266 309.626L7.41872 295.899L1.99312 165.444C1.99312 154.594 5.20965 143.987 11.2362 134.964C17.2628 125.941 25.8289 118.907 35.8519 114.751L46.4832 110.343L34.5468 276.367Z" fill="#E6E6E6"/>
<path d="M207.082 164.361L207.049 165.131L202.665 270.432L201.819 290.778L201.656 294.814L200.169 308.541C199.926 310.797 199.221 312.979 198.098 314.951C196.975 316.923 195.459 318.643 193.644 320.005C191.828 321.366 189.752 322.34 187.544 322.865C185.337 323.39 183.045 323.455 180.811 323.057C178.576 322.659 176.448 321.806 174.558 320.55C172.668 319.295 171.056 317.664 169.822 315.759C168.589 313.854 167.76 311.716 167.388 309.478C167.016 307.239 167.108 304.948 167.659 302.747L174.528 275.282L174.376 273.242L173.465 260.481L162.592 109.258L173.226 113.664C183.243 117.829 191.803 124.866 197.827 133.888C203.852 142.909 207.072 153.512 207.082 164.361V164.361Z" fill="#E6E6E6"/>
<path d="M106.225 284.191C66.8081 284.191 42.4935 270.521 42.1496 270.323L43.2342 268.443C43.7185 268.723 92.4834 296.076 164.128 272.366L164.811 274.426C145.932 280.8 126.151 284.097 106.225 284.191V284.191Z" fill="#2F2E41"/>
<path d="M67.1938 384.235C58.5192 364.717 58.4752 279.883 58.4778 276.281L60.6481 276.283C60.6475 277.161 60.6883 364.254 69.1775 383.354L67.1938 384.235Z" fill="#2F2E41"/>
<path d="M71.706 385.111C63.9787 385.111 58.8445 383.465 55.4975 381.578C49.4032 378.141 48.1459 373.458 48.0955 373.261L50.1979 372.723L49.1467 372.992L50.1964 372.718C50.2404 372.882 51.3376 376.78 56.6594 379.741C62.519 383 74.3139 385.432 97.2181 378.506L97.8454 380.583C86.8839 383.897 78.3397 385.111 71.706 385.111Z" fill="#2F2E41"/>
<path d="M52.3232 107.674L50.1551 107.78L58.479 277.741L60.6471 277.634L52.3232 107.674Z" fill="#2F2E41"/>
<path d="M140.796 384.235L138.812 383.354C147.301 364.254 147.343 277.161 147.342 276.283L149.512 276.281C149.514 279.883 149.47 364.717 140.796 384.235Z" fill="#2F2E41"/>
<path d="M136.284 385.111C129.65 385.111 121.108 383.898 110.144 380.583L110.772 378.506C133.676 385.431 145.468 383.001 151.33 379.741C156.652 376.78 157.749 372.882 157.792 372.718L159.894 373.261C159.843 373.458 158.586 378.141 152.492 381.578C149.145 383.465 144.009 385.111 136.284 385.111Z" fill="#2F2E41"/>
<path d="M155.658 107.674L147.351 277.635L149.519 277.741L157.826 107.78L155.658 107.674Z" fill="#2F2E41"/>
<path d="M134.248 133.131L118.101 157.003H83.377L71.767 133.131H76.867L85.548 152.663H114.846L128.953 133.131H134.248Z" fill="#6C63FF"/>
<path d="M173.443 145.067L173.725 145.631L173.443 146.152V145.067Z" fill="black"/>
<path d="M209.252 164.361L209.219 165.131L188.634 171.11L175.895 145.631L188.928 121.737C195.278 126.878 200.399 133.373 203.915 140.748C207.432 148.123 209.255 156.19 209.252 164.361V164.361Z" fill="#6C63FF"/>
<path d="M0.658284 164.361L0.690877 165.131L21.2757 171.11L34.015 145.631L20.9827 121.737C14.6322 126.878 9.51139 133.373 5.99483 140.748C2.47828 148.123 0.654958 156.19 0.658284 164.361V164.361Z" fill="#6C63FF"/>
<path d="M103.452 115.226C135.215 115.226 160.964 89.4774 160.964 57.7146C160.964 25.9518 135.215 0.203003 103.452 0.203003C71.6895 0.203003 45.9406 25.9518 45.9406 57.7146C45.9406 89.4774 71.6895 115.226 103.452 115.226Z" fill="#E6E6E6"/>
<path d="M103.452 107.63C126.825 107.63 145.772 88.6831 145.772 65.3105C145.772 41.9378 126.825 22.9906 103.452 22.9906C80.0796 22.9906 61.1324 41.9378 61.1324 65.3105C61.1324 88.6831 80.0796 107.63 103.452 107.63Z" fill="#2F2E41"/>
<path d="M203.284 270.432L202.403 290.778L174.571 275.825L173.849 273.242L172.9 260.481L203.284 270.432Z" fill="#6C63FF"/>
<path d="M5.32401 270.432L6.25 290.778L35.503 275.825L36.263 273.242L37.26 260.481L5.32401 270.432Z" fill="#6C63FF"/>
<path d="M118.678 158.089H82.698L62.777 117.139L61.753 102.41L63.918 102.26L64.913 116.568L84.057 155.918H117.525L142.075 119.628L147.301 103.605L149.366 104.277L143.958 120.718L118.678 158.089Z" fill="#2F2E41"/>
</svg>
