<svg width="81" height="80" fill="none" xmlns="http://www.w3.org/2000/svg"><g clip-path="url(#clip0)" fill="#fff"><path d="M77.838 18.327c-1.597-1.673-3.802-2.661-6.311-2.661H58.903v-.152c0-1.902-.76-3.727-2.053-4.943a6.958 6.958 0 00-4.943-2.054H29.093c-1.977 0-3.726.76-5.019 2.054a6.958 6.958 0 00-2.053 4.943v.152H9.473c-2.51 0-4.714.988-6.311 2.661C1.565 19.924.5 22.205.5 24.64v37.87c0 2.51.989 4.716 2.662 6.313 1.597 1.596 3.878 2.661 6.311 2.661h62.054c2.51 0 4.714-.989 6.311-2.662 1.597-1.596 2.662-3.878 2.662-6.311V24.639c0-2.51-.989-4.715-2.662-6.312zM76.546 62.51h-.076a4.882 4.882 0 01-1.445 3.498 4.882 4.882 0 01-3.498 1.445H9.473a4.882 4.882 0 01-3.498-1.445A4.882 4.882 0 014.53 62.51V24.639c0-1.369.533-2.585 1.445-3.498a4.882 4.882 0 013.498-1.445H24.15c1.14 0 2.053-.913 2.053-2.053v-2.206c0-.836.305-1.596.837-2.129.532-.532 1.293-.836 2.13-.836h22.737c.836 0 1.597.304 2.13.836.531.533.836 1.293.836 2.13v2.205c0 1.14.912 2.053 2.053 2.053h14.677a4.88 4.88 0 013.498 1.445 4.882 4.882 0 011.445 3.498v37.87z"/><path d="M40.5 24.867a18.74 18.74 0 00-13.232 5.476 18.557 18.557 0 00-5.475 13.231 18.74 18.74 0 005.475 13.232c3.422 3.422 8.061 5.476 13.232 5.476a18.74 18.74 0 0013.232-5.476 18.556 18.556 0 005.475-13.232 18.74 18.74 0 00-5.475-13.231A18.74 18.74 0 0040.5 24.867zm10.342 29.126c-2.661 2.585-6.311 4.258-10.342 4.258-4.03 0-7.68-1.673-10.342-4.258-2.662-2.662-4.259-6.312-4.259-10.343 0-4.03 1.673-7.68 4.259-10.342C32.82 30.647 36.47 29.05 40.5 29.05s7.68 1.673 10.342 4.258c2.662 2.662 4.259 6.312 4.259 10.343.076 4.03-1.597 7.68-4.259 10.342zm16.73-21.75a3.726 3.726 0 100-7.452 3.726 3.726 0 000 7.452z"/></g><defs><clipPath id="clip0"><path fill="#fff" transform="translate(.5)" d="M0 0h80v80H0z"/></clipPath></defs></svg>