<svg width="81" height="80" viewBox="0 0 81 80" fill="none" xmlns="http://www.w3.org/2000/svg">
<g clip-path="url(#clip0)">
<path d="M77.8384 18.3272C76.2414 16.6542 74.0361 15.6656 71.5266 15.6656H58.903V15.5135C58.903 13.6124 58.1426 11.7873 56.8498 10.5706C55.557 9.27779 53.808 8.51733 51.9068 8.51733H29.0932C27.116 8.51733 25.3669 9.27779 24.0741 10.5706C22.7814 11.8633 22.0209 13.6124 22.0209 15.5135V15.6656H9.47338C6.96388 15.6656 4.75856 16.6542 3.1616 18.3272C1.56464 19.9242 0.5 22.2055 0.5 24.639V62.5097C0.5 65.0192 1.48859 67.2246 3.1616 68.8215C4.75856 70.4185 7.03992 71.4831 9.47338 71.4831H71.5266C74.0361 71.4831 76.2414 70.4945 77.8384 68.8215C79.4354 67.2246 80.5 64.9432 80.5 62.5097V24.639C80.5 22.1295 79.5114 19.9242 77.8384 18.3272ZM76.5456 62.5097H76.4696C76.4696 63.8785 75.9373 65.0953 75.0247 66.0078C74.1122 66.9204 72.8954 67.4527 71.5266 67.4527H9.47338C8.10456 67.4527 6.88783 66.9204 5.97529 66.0078C5.06274 65.0953 4.53042 63.8785 4.53042 62.5097V24.639C4.53042 23.2702 5.06274 22.0535 5.97529 21.1409C6.88783 20.2284 8.10456 19.696 9.47338 19.696H24.1502C25.2909 19.696 26.2034 18.7835 26.2034 17.6428V15.4375C26.2034 14.601 26.5076 13.8405 27.0399 13.3082C27.5722 12.7759 28.3327 12.4717 29.1692 12.4717H51.9068C52.7433 12.4717 53.5038 12.7759 54.0361 13.3082C54.5684 13.8405 54.8726 14.601 54.8726 15.4375V17.6428C54.8726 18.7835 55.7852 19.696 56.9259 19.696H71.6027C72.9715 19.696 74.1882 20.2284 75.1008 21.1409C76.0133 22.0535 76.5456 23.2702 76.5456 24.639V62.5097Z" fill="white"/>
<path d="M40.5002 24.8672C35.3291 24.8672 30.6143 26.9965 27.2683 30.3425C23.8462 33.7645 21.793 38.4033 21.793 43.5744C21.793 48.7455 23.9222 53.4604 27.2683 56.8064C30.6903 60.2284 35.3291 62.2817 40.5002 62.2817C45.6713 62.2817 50.3861 60.1524 53.7321 56.8064C57.1542 53.3843 59.2074 48.7455 59.2074 43.5744C59.2074 38.4033 57.0781 33.6885 53.7321 30.3425C50.3861 26.9965 45.6713 24.8672 40.5002 24.8672ZM50.8424 53.9927C48.1808 56.5782 44.5306 58.2512 40.5002 58.2512C36.4698 58.2512 32.8196 56.5782 30.158 53.9927C27.4964 51.3311 25.8994 47.6809 25.8994 43.6505C25.8994 39.62 27.5724 35.9699 30.158 33.3083C32.8196 30.6467 36.4698 29.0497 40.5002 29.0497C44.5306 29.0497 48.1808 30.7227 50.8424 33.3083C53.504 35.9699 55.101 39.62 55.101 43.6505C55.177 47.6809 53.504 51.3311 50.8424 53.9927Z" fill="white"/>
<path d="M67.5722 32.2434C69.6301 32.2434 71.2984 30.5751 71.2984 28.5171C71.2984 26.4592 69.6301 24.7909 67.5722 24.7909C65.5142 24.7909 63.8459 26.4592 63.8459 28.5171C63.8459 30.5751 65.5142 32.2434 67.5722 32.2434Z" fill="white"/>
</g>
<defs>
<clipPath id="clip0">
<rect width="80" height="80" fill="white" transform="translate(0.5)"/>
</clipPath>
</defs>
</svg>
