<svg width="81" height="80" fill="none" xmlns="http://www.w3.org/2000/svg"><g clip-path="url(#clip0)" fill="#fff"><path d="M75.5 15h-55a5 5 0 00-5 5v55a5 5 0 005 5h55a5 5 0 005-5V20a5 5 0 00-5-5zm0 60h-55V20h55v55z"/><path d="M5.5 5h55v5h5V5a5 5 0 00-5-5h-55a5 5 0 00-5 5v55a5 5 0 005 5h5v-5h-5V5zM28 62.5h40a2.5 2.5 0 001.775-4.275l-10-10a2.5 2.5 0 00-3.525 0L53 51.475l-8.225-8.225a2.5 2.5 0 00-3.525 0l-15 15A2.5 2.5 0 0028 62.5zm32.5-20a5 5 0 100-10 5 5 0 000 10z"/></g><defs><clipPath id="clip0"><path fill="#fff" transform="translate(.5)" d="M0 0h80v80H0z"/></clipPath></defs></svg>