<svg width="81" height="80" viewBox="0 0 81 80" fill="none" xmlns="http://www.w3.org/2000/svg">
<path d="M48.3125 12.9688C47.45 12.9688 46.75 13.6687 46.75 14.5312C46.75 15.3937 47.45 16.0938 48.3125 16.0938C49.175 16.0938 49.875 15.3937 49.875 14.5312C49.875 13.6687 49.175 12.9688 48.3125 12.9688Z" fill="white"/>
<path d="M32.6875 12.9688C31.825 12.9688 31.125 13.6687 31.125 14.5312C31.125 15.3937 31.825 16.0938 32.6875 16.0938C33.55 16.0938 34.25 15.3937 34.25 14.5312C34.25 13.6687 33.55 12.9688 32.6875 12.9688Z" fill="white"/>
<path d="M74.4255 46.7003C75.7666 44.6875 76.4375 42.1761 76.4375 40C76.4375 36.7194 74.9802 33.6714 72.4794 31.6045C73.0328 30.282 73.3125 28.9066 73.3125 27.5C73.3125 23.1477 70.7725 19.0933 66.9961 17.2C67.5691 12.4478 64.4725 8.09188 59.8836 6.98078C58.0875 2.82875 54.0898 0 49.875 0C45.9516 0 42.4327 2.28844 40.5 5.6275C38.5672 2.28844 35.0483 0 31.125 0C26.9098 0 22.9122 2.82875 21.1164 6.98094C16.5 8.09906 13.4325 12.4767 14.0039 17.2C10.2277 19.0931 7.6875 23.1477 7.6875 27.5C7.6875 28.9066 7.96719 30.282 8.52063 31.6045C6.01984 33.6716 4.5625 36.7194 4.5625 40C4.5625 42.1875 5.23906 44.6956 6.57453 46.7002C5.26953 48.5423 4.5625 50.7256 4.5625 52.9688C4.5625 55.8775 5.74187 58.6484 7.82797 60.7059C6.75547 67.1891 11.9258 73.75 18.625 73.75C18.6734 73.75 18.7211 73.7492 18.7678 73.7478C20.9889 77.5794 25.1117 80 29.5625 80C34.2013 80 38.3462 77.2156 40.5 73.2041C42.6538 77.2156 46.7988 80 51.4375 80C55.8883 80 60.0111 77.5794 62.2322 73.7478C62.2791 73.7492 62.3266 73.75 62.375 73.75C68.3037 73.75 73.3125 68.5266 73.3125 62.3438C73.3125 61.8173 73.2663 61.2759 73.172 60.7059C75.2581 58.6484 76.4375 55.8777 76.4375 52.9688C76.4375 50.7256 75.7305 48.5423 74.4255 46.7003ZM38.9375 23.6533C38.0175 23.1197 36.9505 22.8125 35.8125 22.8125C34.9495 22.8125 34.25 23.512 34.25 24.375C34.25 25.238 34.9495 25.9375 35.8125 25.9375C37.5356 25.9375 38.9375 27.3394 38.9375 29.0625V58.7764C36.6452 56.1763 33.2933 54.5312 29.5625 54.5312C28.6995 54.5312 28 55.2308 28 56.0938C28 56.9567 28.6995 57.6562 29.5625 57.6562C34.7319 57.6562 38.9375 61.8619 38.9375 67.0312C38.9375 72.367 34.6442 76.875 29.5625 76.875C25.945 76.875 22.6148 74.7358 21.0783 71.425C20.795 70.8148 20.1534 70.455 19.4845 70.5303C19.3741 70.543 19.2642 70.5577 19.1544 70.5727C14.7075 71.1808 9.69969 66.1453 11.0553 60.5122C11.1945 59.9336 10.993 59.3264 10.5356 58.9458C8.72562 57.4397 7.6875 55.2611 7.6875 52.9688C7.6875 51.5514 8.08828 50.1644 8.83406 48.9481C10.7081 50.4841 13.0392 51.4062 15.5 51.4062C16.363 51.4062 17.0625 50.7067 17.0625 49.8438C17.0625 48.9808 16.363 48.2812 15.5 48.2812C11.2595 48.2812 7.6875 44.4109 7.6875 40C7.6875 37.3242 9.05141 34.8627 11.3362 33.4153C12.0402 32.9694 12.2703 32.0495 11.8592 31.3247C11.1647 30.0998 10.8125 28.813 10.8125 27.5C10.8125 23.2828 14.2503 19.2188 18.625 19.2188C22.7869 19.2188 26.4375 23.0886 26.4375 27.5C26.4375 28.363 27.137 29.0625 28 29.0625C28.863 29.0625 29.5625 28.363 29.5625 27.5C29.5625 21.3172 24.5537 16.0938 18.625 16.0938C18.1019 16.0938 17.5816 16.1361 17.0664 16.2162C17.0656 16.1752 17.0625 16.1352 17.0625 16.0938C17.0625 12.6067 19.8933 9.84375 23.3125 9.84375C24.9816 9.84375 26.5516 10.4939 27.7331 11.6742C28.3436 12.2841 29.3328 12.2834 29.9428 11.6731C30.5527 11.0625 30.5522 10.0733 29.9417 9.46344C28.5163 8.03953 26.7133 7.13141 24.7594 6.83047C26.1373 4.785 28.4287 3.125 31.125 3.125C35.2869 3.125 38.9375 6.99469 38.9375 11.4062V23.6533ZM65.5 51.4062C67.9609 51.4062 70.292 50.4839 72.1661 48.9486C72.9117 50.1647 73.3125 51.5516 73.3125 52.9688C73.3125 55.2611 72.2744 57.4397 70.4645 58.9458C70.007 59.3264 69.8056 59.9338 69.9448 60.5122C70.1105 61.2002 70.1875 61.7822 70.1875 62.3436C70.1875 67.1936 65.8008 71.1133 61.8458 70.5727C61.7359 70.5577 61.6259 70.5428 61.5155 70.5303C60.8456 70.4545 60.2048 70.8148 59.9219 71.425C58.3853 74.7358 55.0548 76.875 51.4375 76.875C46.3558 76.875 42.0625 72.367 42.0625 67.0312C42.0625 61.8619 46.2681 57.6562 51.4375 57.6562C52.3003 57.6562 53 56.9567 53 56.0938C53 55.2308 52.3003 54.5312 51.4375 54.5312C47.7067 54.5312 44.3548 56.1763 42.0625 58.7764V29.0625C42.0625 27.3394 43.4644 25.9375 45.1875 25.9375C46.0503 25.9375 46.75 25.238 46.75 24.375C46.75 23.512 46.0503 22.8125 45.1875 22.8125C44.0495 22.8125 42.9825 23.1197 42.0625 23.6533V11.4062C42.0625 6.99469 45.7131 3.125 49.875 3.125C52.5713 3.125 54.8625 4.785 56.2405 6.83031C54.2867 7.13125 52.4839 8.03937 51.0583 9.46328C50.4477 10.0731 50.447 11.0623 51.0569 11.673C51.6667 12.2836 52.6562 12.2841 53.2666 11.6742C54.4486 10.4939 56.0184 9.84375 57.6875 9.84375C61.1239 9.84375 63.9375 12.623 63.9375 16.0938C63.9375 16.135 63.9344 16.1752 63.9336 16.2162C63.4184 16.1361 62.8981 16.0938 62.375 16.0938C56.4463 16.0938 51.4375 21.3172 51.4375 27.5C51.4375 28.363 52.1372 29.0625 53 29.0625C53.8628 29.0625 54.5625 28.363 54.5625 27.5C54.5625 23.0886 58.2131 19.2188 62.375 19.2188C66.7472 19.2188 70.1875 23.2808 70.1875 27.5C70.1875 28.813 69.8353 30.0998 69.1408 31.3247C68.7298 32.0495 68.96 32.9694 69.6639 33.4153C71.9486 34.8627 73.3125 37.3242 73.3125 40C73.3125 44.4267 69.728 48.2812 65.5 48.2812C64.6372 48.2812 63.9375 48.9808 63.9375 49.8438C63.9375 50.7067 64.6372 51.4062 65.5 51.4062Z" fill="white"/>
<path d="M35.4145 33.4458C34.8392 32.8027 33.8516 32.7477 33.2083 33.323C28.1977 37.805 20.1875 34.223 20.1875 27.5C20.1875 26.637 19.488 25.9375 18.625 25.9375C17.762 25.9375 17.0625 26.637 17.0625 27.5C17.0625 32.9242 21.0323 37.4367 26.2188 38.2902C25.6172 40.1852 23.8416 41.5625 21.75 41.5625C20.887 41.5625 20.1875 42.262 20.1875 43.125C20.1875 43.988 20.887 44.6875 21.75 44.6875C25.5558 44.6875 28.7328 41.9516 29.4222 38.3434C31.5952 38.0592 33.6403 37.1294 35.2917 35.652C35.9348 35.0767 35.9898 34.0889 35.4145 33.4458Z" fill="white"/>
<path d="M18.625 60.7812C17.762 60.7812 17.0625 61.4808 17.0625 62.3438C17.0625 63.2067 17.762 63.9062 18.625 63.9062C22.7869 63.9062 26.4375 67.7761 26.4375 72.1875C26.4375 73.0505 27.137 73.75 28 73.75C28.863 73.75 29.5625 73.0505 29.5625 72.1875C29.5625 66.0047 24.5538 60.7812 18.625 60.7812Z" fill="white"/>
<path d="M31.1248 48.2812C25.8301 48.2812 21.2842 51.1852 18.8904 55.4075C18.465 56.1583 18.7286 57.1119 19.4792 57.5373C20.23 57.9628 21.1834 57.6994 21.609 56.9486C23.4739 53.6586 27.0123 51.4062 31.1248 51.4062C31.9878 51.4062 32.6873 50.7067 32.6873 49.8437C32.6873 48.9808 31.9878 48.2812 31.1248 48.2812Z" fill="white"/>
<path d="M59.25 41.5625C57.1585 41.5625 55.3828 40.1852 54.7813 38.2902C59.9677 37.4367 63.9375 32.9242 63.9375 27.5C63.9375 26.637 63.2378 25.9375 62.375 25.9375C61.5122 25.9375 60.8125 26.637 60.8125 27.5C60.8125 31.8078 57.3078 35.3125 53 35.3125C51.0757 35.3125 49.2261 34.6059 47.7917 33.323C47.1488 32.7477 46.1608 32.8025 45.5855 33.4458C45.01 34.0889 45.0652 35.0767 45.7083 35.652C47.3597 37.1294 49.405 38.0592 51.5778 38.3434C52.2672 41.9516 55.4443 44.6875 59.25 44.6875C60.1128 44.6875 60.8125 43.988 60.8125 43.125C60.8125 42.262 60.1128 41.5625 59.25 41.5625Z" fill="white"/>
<path d="M62.375 60.7812C56.4462 60.7812 51.4375 66.0047 51.4375 72.1875C51.4375 73.0505 52.1372 73.75 53 73.75C53.8628 73.75 54.5625 73.0505 54.5625 72.1875C54.5625 67.7761 58.2131 63.9062 62.375 63.9062C63.2378 63.9062 63.9375 63.2067 63.9375 62.3438C63.9375 61.4808 63.2378 60.7812 62.375 60.7812Z" fill="white"/>
<path d="M62.1094 55.4077C59.7216 51.1953 55.1819 48.2812 49.875 48.2812C49.0122 48.2812 48.3125 48.9808 48.3125 49.8437C48.3125 50.7067 49.0122 51.4062 49.875 51.4062C53.9845 51.4062 57.5256 53.658 59.3905 56.9486C59.8166 57.7003 60.7708 57.9625 61.5203 57.5375C62.2711 57.112 62.5347 56.1584 62.1094 55.4077Z" fill="white"/>
</svg>
