<svg width="81" height="80" fill="none" xmlns="http://www.w3.org/2000/svg"><path d="M48.313 12.969a1.563 1.563 0 100 3.126 1.563 1.563 0 000-3.126zm-15.625 0a1.563 1.563 0 100 3.126 1.563 1.563 0 000-3.126z" fill="#fff"/><path d="M74.425 46.7c1.342-2.013 2.013-4.524 2.013-6.7 0-3.28-1.458-6.329-3.959-8.395.554-1.323.834-2.698.834-4.105 0-4.352-2.54-8.407-6.317-10.3.573-4.752-2.523-9.108-7.112-10.22C58.087 2.83 54.09 0 49.875 0c-3.923 0-7.442 2.288-9.375 5.628C38.567 2.288 35.048 0 31.125 0c-4.215 0-8.213 2.829-10.009 6.98-4.616 1.12-7.684 5.497-7.112 10.22-3.776 1.893-6.316 5.948-6.316 10.3 0 1.407.28 2.782.833 4.105A10.853 10.853 0 004.562 40c0 2.188.677 4.696 2.013 6.7a10.84 10.84 0 00-2.013 6.269c0 2.908 1.18 5.68 3.266 7.737-1.073 6.483 4.098 13.044 10.797 13.044.048 0 .096 0 .143-.002C20.988 77.579 25.112 80 29.562 80c4.64 0 8.784-2.784 10.938-6.796C42.654 77.216 46.799 80 51.438 80c4.45 0 8.573-2.42 10.794-6.252l.143.002c5.929 0 10.938-5.223 10.938-11.406 0-.527-.047-1.068-.141-1.638 2.086-2.058 3.266-4.828 3.266-7.737 0-2.243-.707-4.427-2.013-6.269zM38.938 23.653a6.21 6.21 0 00-3.126-.84 1.562 1.562 0 100 3.125 3.129 3.129 0 013.126 3.125v29.713a12.471 12.471 0 00-9.376-4.245 1.563 1.563 0 000 3.125c5.17 0 9.375 4.206 9.375 9.375 0 5.336-4.293 9.844-9.374 9.844-3.618 0-6.948-2.14-8.485-5.45a1.563 1.563 0 00-1.593-.895c-.11.013-.22.028-.33.043-4.448.608-9.455-4.428-8.1-10.06a1.562 1.562 0 00-.52-1.567c-1.81-1.506-2.848-3.685-2.848-5.977a7.68 7.68 0 011.147-4.02c1.874 1.535 4.205 2.457 6.666 2.457a1.562 1.562 0 100-3.125c-4.24 0-7.813-3.87-7.813-8.281 0-2.676 1.364-5.137 3.65-6.585a1.562 1.562 0 00.522-2.09c-.694-1.225-1.046-2.512-1.046-3.825 0-4.217 3.437-8.281 7.812-8.281 4.162 0 7.813 3.87 7.813 8.281a1.562 1.562 0 103.125 0c0-6.183-5.01-11.406-10.938-11.406-.523 0-1.043.042-1.559.122 0-.04-.003-.08-.003-.122 0-3.487 2.83-6.25 6.25-6.25 1.669 0 3.239.65 4.42 1.83a1.563 1.563 0 002.209-2.21 9.311 9.311 0 00-5.183-2.634c1.378-2.045 3.67-3.705 6.366-3.705 4.162 0 7.813 3.87 7.813 8.281v12.247zM65.5 51.406c2.46 0 4.792-.922 6.666-2.457a7.689 7.689 0 011.147 4.02c0 2.292-1.039 4.47-2.849 5.977-.457.38-.658.988-.52 1.566.166.688.243 1.27.243 1.832 0 4.85-4.386 8.77-8.341 8.229-.11-.015-.22-.03-.33-.043a1.561 1.561 0 00-1.594.895c-1.537 3.31-4.867 5.45-8.484 5.45-5.082 0-9.376-4.508-9.376-9.844 0-5.17 4.206-9.375 9.376-9.375a1.563 1.563 0 000-3.125 12.474 12.474 0 00-9.376 4.245V29.062a3.129 3.129 0 013.126-3.125 1.563 1.563 0 000-3.125 6.21 6.21 0 00-3.126.841V11.406c0-4.411 3.651-8.281 7.813-8.281 2.696 0 4.987 1.66 6.365 3.705a9.312 9.312 0 00-5.182 2.633 1.562 1.562 0 102.209 2.211 6.216 6.216 0 014.42-1.83 6.247 6.247 0 016.25 6.25c0 .041-.003.081-.003.122a10.14 10.14 0 00-1.559-.122c-5.929 0-10.938 5.223-10.938 11.406a1.563 1.563 0 003.126 0c0-4.411 3.65-8.281 7.812-8.281 4.372 0 7.813 4.062 7.813 8.281 0 1.313-.353 2.6-1.047 3.825a1.563 1.563 0 00.523 2.09c2.285 1.448 3.648 3.91 3.648 6.585 0 4.427-3.584 8.281-7.812 8.281a1.563 1.563 0 000 3.125z" fill="#fff"/><path d="M35.414 33.446a1.562 1.562 0 00-2.206-.123c-5.01 4.482-13.02.9-13.02-5.823a1.562 1.562 0 10-3.125 0c0 5.424 3.97 9.937 9.156 10.79a4.696 4.696 0 01-4.469 3.273 1.562 1.562 0 100 3.124c3.806 0 6.983-2.735 7.672-6.344a10.918 10.918 0 005.87-2.691 1.562 1.562 0 00.122-2.206zM18.625 60.781a1.563 1.563 0 000 3.125c4.162 0 7.813 3.87 7.813 8.282a1.562 1.562 0 103.125 0c0-6.183-5.01-11.407-10.938-11.407zm12.5-12.5c-5.295 0-9.84 2.904-12.235 7.127a1.563 1.563 0 002.719 1.54 10.913 10.913 0 019.516-5.542 1.562 1.562 0 100-3.125zm28.125-6.718a4.696 4.696 0 01-4.469-3.273c5.187-.853 9.157-5.366 9.157-10.79a1.563 1.563 0 00-3.126 0c0 4.308-3.504 7.813-7.812 7.813a7.803 7.803 0 01-5.208-1.99 1.562 1.562 0 10-2.084 2.329 10.92 10.92 0 005.87 2.691c.69 3.609 3.866 6.344 7.672 6.344a1.563 1.563 0 000-3.124zm3.125 19.218c-5.929 0-10.938 5.224-10.938 11.407a1.563 1.563 0 003.126 0c0-4.412 3.65-8.282 7.812-8.282a1.563 1.563 0 000-3.125zm-.265-5.373c-2.388-4.213-6.928-7.127-12.235-7.127a1.563 1.563 0 000 3.125c4.11 0 7.65 2.252 9.516 5.543a1.563 1.563 0 002.718-1.541z" fill="#fff"/></svg>