<svg width="81" height="80" viewBox="0 0 81 80" fill="none" xmlns="http://www.w3.org/2000/svg">
<g clip-path="url(#clip0)">
<path d="M75.5 15H20.5C17.7386 15 15.5 17.2386 15.5 20V75C15.5 77.7614 17.7386 80 20.5 80H75.5C78.2614 80 80.5 77.7614 80.5 75V20C80.5 17.2386 78.2614 15 75.5 15ZM75.5 75H20.5V20H75.5V75Z" fill="white"/>
<path d="M5.5 5H60.5V10H65.5V5C65.5 2.23859 63.2614 0 60.5 0H5.5C2.73859 0 0.5 2.23859 0.5 5V60C0.5 62.7614 2.73859 65 5.5 65H10.5V60H5.5V5Z" fill="white"/>
<path d="M28 62.4999H68C69.3807 62.5079 70.5065 61.3952 70.5146 60.0144C70.5185 59.3427 70.2519 58.6979 69.775 58.2249L59.775 48.2249C58.7999 47.2555 57.2252 47.2555 56.25 48.2249L53 51.4749L44.775 43.2499C43.7999 42.2805 42.2252 42.2805 41.25 43.2499L26.25 58.2499C25.2835 59.2358 25.2989 60.8186 26.2849 61.7852C26.7436 62.2349 27.3577 62.4908 28 62.4999Z" fill="white"/>
<path d="M60.5 42.5C63.2614 42.5 65.5 40.2614 65.5 37.5C65.5 34.7386 63.2614 32.5 60.5 32.5C57.7386 32.5 55.5 34.7386 55.5 37.5C55.5 40.2614 57.7386 42.5 60.5 42.5Z" fill="white"/>
</g>
<defs>
<clipPath id="clip0">
<rect width="80" height="80" fill="white" transform="translate(0.5)"/>
</clipPath>
</defs>
</svg>
