<?xml version="1.0" encoding="utf-8"?><svg viewBox="0 0 81 80" xmlns="http://www.w3.org/2000/svg" xmlns:xlink="http://www.w3.org/1999/xlink"><style>:root>svg{display:none}:root>svg:target{display:block}</style><svg viewBox="0 0 81 80" id="benefits__item-1" xmlns="http://www.w3.org/2000/svg"><path d="M48.313 12.969a1.563 1.563 0 100 3.126 1.563 1.563 0 000-3.126zM32.688 12.969a1.563 1.563 0 100 3.126 1.563 1.563 0 000-3.126z"/><path d="M74.425 46.7c1.342-2.013 2.013-4.524 2.013-6.7 0-3.28-1.458-6.329-3.959-8.395.554-1.323.834-2.698.834-4.105 0-4.352-2.54-8.407-6.317-10.3.573-4.752-2.523-9.108-7.112-10.22C58.087 2.83 54.09 0 49.875 0c-3.923 0-7.442 2.288-9.375 5.628C38.567 2.288 35.048 0 31.125 0c-4.215 0-8.213 2.829-10.009 6.98-4.616 1.12-7.684 5.497-7.112 10.22-3.776 1.893-6.316 5.948-6.316 10.3 0 1.407.28 2.782.833 4.105A10.853 10.853 0 004.562 40c0 2.188.677 4.696 2.013 6.7a10.84 10.84 0 00-2.013 6.269c0 2.908 1.18 5.68 3.266 7.737-1.073 6.483 4.098 13.044 10.797 13.044.048 0 .096 0 .143-.002C20.988 77.579 25.112 80 29.562 80c4.64 0 8.784-2.784 10.938-6.796C42.654 77.216 46.799 80 51.438 80c4.45 0 8.573-2.42 10.794-6.252l.143.002c5.929 0 10.938-5.223 10.938-11.406 0-.527-.047-1.068-.141-1.638 2.086-2.058 3.266-4.828 3.266-7.737 0-2.243-.707-4.427-2.013-6.269zM38.938 23.653a6.21 6.21 0 00-3.126-.84 1.562 1.562 0 100 3.125 3.129 3.129 0 013.126 3.125v29.713a12.471 12.471 0 00-9.376-4.245 1.563 1.563 0 000 3.125c5.17 0 9.375 4.206 9.375 9.375 0 5.336-4.293 9.844-9.374 9.844-3.618 0-6.948-2.14-8.485-5.45a1.563 1.563 0 00-1.593-.895c-.11.013-.22.028-.33.043-4.448.608-9.455-4.428-8.1-10.06a1.562 1.562 0 00-.52-1.567c-1.81-1.506-2.848-3.685-2.848-5.977 0-1.418.401-2.805 1.147-4.02 1.874 1.535 4.205 2.457 6.666 2.457a1.562 1.562 0 100-3.125c-4.24 0-7.813-3.87-7.813-8.281 0-2.676 1.364-5.137 3.65-6.585a1.562 1.562 0 00.522-2.09c-.694-1.225-1.046-2.512-1.046-3.825 0-4.217 3.437-8.281 7.812-8.281 4.162 0 7.813 3.87 7.813 8.281a1.562 1.562 0 103.125 0c0-6.183-5.01-11.406-10.938-11.406-.523 0-1.043.042-1.559.122 0-.04-.003-.08-.003-.122 0-3.487 2.83-6.25 6.25-6.25 1.669 0 3.239.65 4.42 1.83a1.563 1.563 0 002.209-2.21 9.311 9.311 0 00-5.183-2.634c1.378-2.045 3.67-3.705 6.366-3.705 4.162 0 7.813 3.87 7.813 8.281v12.247zM65.5 51.406c2.46 0 4.792-.922 6.666-2.457a7.689 7.689 0 011.147 4.02c0 2.292-1.039 4.47-2.849 5.977-.457.38-.658.988-.52 1.566.166.688.243 1.27.243 1.832 0 4.85-4.386 8.77-8.341 8.229-.11-.015-.22-.03-.33-.043a1.561 1.561 0 00-1.594.895c-1.537 3.31-4.867 5.45-8.484 5.45-5.082 0-9.376-4.508-9.376-9.844 0-5.17 4.206-9.375 9.376-9.375a1.563 1.563 0 000-3.125c-3.731 0-7.083 1.645-9.376 4.245V29.062a3.129 3.129 0 013.126-3.125 1.563 1.563 0 000-3.125 6.21 6.21 0 00-3.126.841V11.406c0-4.411 3.651-8.281 7.813-8.281 2.696 0 4.987 1.66 6.365 3.705a9.312 9.312 0 00-5.182 2.633 1.562 1.562 0 102.209 2.211 6.216 6.216 0 014.42-1.83c3.437 0 6.25 2.779 6.25 6.25 0 .041-.003.081-.003.122a10.14 10.14 0 00-1.559-.122c-5.929 0-10.938 5.223-10.938 11.406a1.563 1.563 0 003.126 0c0-4.411 3.65-8.281 7.812-8.281 4.372 0 7.813 4.062 7.813 8.281 0 1.313-.353 2.6-1.047 3.825a1.563 1.563 0 00.523 2.09c2.285 1.448 3.648 3.91 3.648 6.585 0 4.427-3.584 8.281-7.812 8.281a1.563 1.563 0 000 3.125z"/><path d="M35.414 33.446a1.562 1.562 0 00-2.206-.123c-5.01 4.482-13.02.9-13.02-5.823a1.562 1.562 0 10-3.125 0c0 5.424 3.97 9.937 9.156 10.79a4.696 4.696 0 01-4.469 3.273 1.562 1.562 0 100 3.124c3.806 0 6.983-2.735 7.672-6.344a10.918 10.918 0 005.87-2.691 1.562 1.562 0 00.122-2.206zM18.625 60.781a1.563 1.563 0 000 3.125c4.162 0 7.813 3.87 7.813 8.282a1.562 1.562 0 103.125 0c0-6.183-5.01-11.407-10.938-11.407zM31.125 48.281c-5.295 0-9.84 2.904-12.235 7.127a1.563 1.563 0 002.719 1.54 10.913 10.913 0 019.516-5.542 1.562 1.562 0 100-3.125zM59.25 41.563a4.696 4.696 0 01-4.469-3.273c5.187-.853 9.157-5.366 9.157-10.79a1.563 1.563 0 00-3.126 0c0 4.308-3.504 7.813-7.812 7.813a7.803 7.803 0 01-5.208-1.99 1.562 1.562 0 10-2.084 2.329 10.92 10.92 0 005.87 2.691c.69 3.609 3.866 6.344 7.672 6.344a1.563 1.563 0 000-3.124zM62.375 60.781c-5.929 0-10.938 5.224-10.938 11.407a1.563 1.563 0 003.126 0c0-4.412 3.65-8.282 7.812-8.282a1.563 1.563 0 000-3.125zM62.11 55.408c-2.388-4.213-6.928-7.127-12.235-7.127a1.563 1.563 0 000 3.125c4.11 0 7.65 2.252 9.516 5.543a1.563 1.563 0 002.718-1.541z"/></svg><svg viewBox="0 0 81 80" id="benefits__item-2" xmlns="http://www.w3.org/2000/svg"><g clip-path="url(#bclip0)"><path d="M75.5 15h-55a5 5 0 00-5 5v55a5 5 0 005 5h55a5 5 0 005-5V20a5 5 0 00-5-5zm0 60h-55V20h55v55z"/><path d="M5.5 5h55v5h5V5a5 5 0 00-5-5h-55a5 5 0 00-5 5v55a5 5 0 005 5h5v-5h-5V5zM28 62.5h40a2.5 2.5 0 001.775-4.275l-10-10a2.5 2.5 0 00-3.525 0L53 51.475l-8.225-8.225a2.5 2.5 0 00-3.525 0l-15 15A2.5 2.5 0 0028 62.5zM60.5 42.5a5 5 0 100-10 5 5 0 000 10z"/></g><defs><clipPath id="bclip0"><path transform="translate(.5)" d="M0 0h80v80H0z"/></clipPath></defs></svg><svg viewBox="0 0 81 80" id="benefits__item-3" xmlns="http://www.w3.org/2000/svg"><g clip-path="url(#cclip0)"><path d="M77.838 18.327c-1.597-1.673-3.802-2.661-6.311-2.661H58.903v-.152c0-1.902-.76-3.727-2.053-4.943a6.958 6.958 0 00-4.943-2.054H29.093c-1.977 0-3.726.76-5.019 2.054a6.958 6.958 0 00-2.053 4.943v.152H9.473c-2.51 0-4.714.988-6.311 2.661C1.565 19.924.5 22.205.5 24.64v37.87c0 2.51.989 4.716 2.662 6.313 1.597 1.596 3.878 2.661 6.311 2.661h62.054c2.51 0 4.714-.989 6.311-2.662 1.597-1.596 2.662-3.878 2.662-6.311V24.639c0-2.51-.989-4.715-2.662-6.312zM76.546 62.51h-.076a4.882 4.882 0 01-1.445 3.498 4.882 4.882 0 01-3.498 1.445H9.473a4.882 4.882 0 01-3.498-1.445A4.882 4.882 0 014.53 62.51V24.639c0-1.369.533-2.585 1.445-3.498a4.882 4.882 0 013.498-1.445H24.15c1.14 0 2.053-.913 2.053-2.053v-2.206c0-.836.305-1.596.837-2.129.532-.532 1.293-.836 2.13-.836h22.737c.836 0 1.597.304 2.13.836.531.533.836 1.293.836 2.13v2.205c0 1.14.912 2.053 2.053 2.053h14.677c1.369 0 2.585.532 3.498 1.445a4.882 4.882 0 011.445 3.498v37.87z"/><path d="M40.5 24.867a18.74 18.74 0 00-13.232 5.476 18.557 18.557 0 00-5.475 13.231 18.74 18.74 0 005.475 13.232c3.422 3.422 8.061 5.476 13.232 5.476a18.74 18.74 0 0013.232-5.476c3.422-3.422 5.475-8.06 5.475-13.232a18.74 18.74 0 00-5.475-13.231A18.74 18.74 0 0040.5 24.867zm10.342 29.126c-2.661 2.585-6.311 4.258-10.342 4.258-4.03 0-7.68-1.673-10.342-4.258-2.662-2.662-4.259-6.312-4.259-10.343 0-4.03 1.673-7.68 4.259-10.342C32.82 30.647 36.47 29.05 40.5 29.05s7.68 1.673 10.342 4.258c2.662 2.662 4.259 6.312 4.259 10.343.076 4.03-1.597 7.68-4.259 10.342zM67.572 32.243a3.726 3.726 0 100-7.452 3.726 3.726 0 000 7.452z"/></g><defs><clipPath id="cclip0"><path transform="translate(.5)" d="M0 0h80v80H0z"/></clipPath></defs></svg><svg viewBox="0 0 28 28" id="email" xmlns="http://www.w3.org/2000/svg"><path d="M23.333 4.667H4.667A2.33 2.33 0 002.345 7l-.012 14a2.34 2.34 0 002.334 2.333h18.666A2.34 2.34 0 0025.667 21V7a2.34 2.34 0 00-2.334-2.333zm0 4.666L14 15.166 4.667 9.333V7L14 12.833 23.333 7v2.333z"/></svg><svg viewBox="0 0 28 28" id="phone" xmlns="http://www.w3.org/2000/svg"><path d="M7.723 12.588a17.673 17.673 0 007.689 7.689l2.566-2.567a1.16 1.16 0 011.19-.28c1.307.432 2.719.665 4.165.665a1.17 1.17 0 011.167 1.167v4.071a1.17 1.17 0 01-1.167 1.167C12.378 24.5 3.5 15.622 3.5 4.667A1.17 1.17 0 014.667 3.5H8.75a1.17 1.17 0 011.167 1.167c0 1.458.233 2.858.665 4.165a1.17 1.17 0 01-.292 1.19l-2.567 2.566z"/></svg></svg>