<?xml version="1.0" encoding="utf-8"?><svg viewBox="0 0 1200 818" xmlns="http://www.w3.org/2000/svg" xmlns:xlink="http://www.w3.org/1999/xlink"><style>:root>svg{display:none}:root>svg:target{display:block}</style><svg viewBox="0 0 210 507" id="austronaut" xmlns="http://www.w3.org/2000/svg"><path d="M72.526 97.322h61.852v24.338a15.81 15.81 0 01-15.811 15.811h-30.23a15.811 15.811 0 01-15.81-15.811V97.322z"/><path d="M154.996 420.689c-14.085 14.27-28.192 14.366-42.32.46l-10.851-95.951-7.596 96.151c-14.119 11.427-27.276 12.966-39.065.425-11.245-83.075-17.358-160.254-7.596-219.195l-20.617-83.555 46.66-21.702c9.397 23.243-5.423 35.131 28.089 34.733 33.216-.394 30.735-12.889 29.423-34.733l42.923 16.509a15.382 15.382 0 019.147 18.989l-21.687 68.674c8.349 34.666-.223 131.1-6.51 219.195z"/><path d="M89.888 504.243s-34.64 3.035-39.28 1.124a11.55 11.55 0 01-.856-.394c-6.896-3.521-7.106-13.382-.661-17.673l13.67-9.1-11.937-64.022 46.118.543-7.054 89.522zM115.931 504.786s34.641 3.034 39.281 1.124c.293-.121.578-.252.855-.394 6.897-3.521 7.107-13.382.661-17.673l-13.669-9.1 16.82-64.022h-48.288l4.34 90.065z"/><path d="M34.547 276.367l6.866 27.466a16.549 16.549 0 01-7.2 17.996 16.555 16.555 0 01-16.044.926 16.552 16.552 0 01-9.266-13.129l-1.484-13.727-5.426-130.455a54.878 54.878 0 0133.859-50.693l10.631-4.408-11.936 166.024zM207.082 164.361l-.033.77-4.384 105.301-.846 20.346-.163 4.036-1.487 13.727a16.53 16.53 0 01-2.071 6.41 16.56 16.56 0 01-17.287 8.106 16.554 16.554 0 01-13.423-13.579c-.372-2.239-.28-4.53.271-6.731l6.869-27.465-.152-2.04-.911-12.761-10.873-151.223 10.634 4.406a54.957 54.957 0 0133.856 50.697z"/><path d="M106.225 284.191c-39.417 0-63.731-13.67-64.075-13.868l1.084-1.88c.484.28 49.25 27.633 120.894 3.923l.683 2.06a185.888 185.888 0 01-58.586 9.765z"/><path d="M67.194 384.235c-8.675-19.518-8.719-104.352-8.716-107.954l2.17.002c0 .878.04 87.971 8.53 107.071l-1.984.881z"/><path d="M71.706 385.111c-7.727 0-12.862-1.646-16.209-3.533-6.094-3.437-7.351-8.12-7.401-8.317l2.102-.538-1.051.269 1.05-.274c.043.164 1.14 4.062 6.462 7.023 5.86 3.259 17.655 5.691 40.56-1.235l.626 2.077c-10.961 3.314-19.505 4.528-26.139 4.528zM52.323 107.674l-2.168.106 8.324 169.961 2.168-.107-8.324-169.96zM140.796 384.235l-1.984-.881c8.489-19.1 8.531-106.193 8.53-107.071l2.17-.002c.002 3.602-.042 88.436-8.716 107.954z"/><path d="M136.284 385.111c-6.634 0-15.176-1.213-26.14-4.528l.628-2.077c22.904 6.925 34.696 4.495 40.558 1.235 5.322-2.961 6.419-6.859 6.462-7.023l2.102.543c-.051.197-1.308 4.88-7.402 8.317-3.347 1.887-8.483 3.533-16.208 3.533zM155.658 107.674l-8.307 169.961 2.168.106 8.307-169.961-2.168-.106z"/><path d="M134.248 133.131l-16.147 23.872H83.377l-11.61-23.872h5.1l8.681 19.532h29.298l14.107-19.532h5.295z"/><path d="M173.443 145.067l.282.564-.282.521v-1.085z"/><path d="M209.252 164.361l-.033.77-20.585 5.979-12.739-25.479 13.033-23.894a54.809 54.809 0 0120.324 42.624zM.658 164.361l.033.77 20.585 5.979 12.739-25.479-13.032-23.894A54.812 54.812 0 00.658 164.361z"/><path d="M103.452 115.226c31.763 0 57.512-25.749 57.512-57.511 0-31.763-25.749-57.512-57.512-57.512S45.941 25.952 45.941 57.715c0 31.762 25.748 57.511 57.511 57.511z"/><path d="M103.452 107.63c23.373 0 42.32-18.947 42.32-42.32 0-23.372-18.947-42.32-42.32-42.32-23.372 0-42.32 18.948-42.32 42.32 0 23.373 18.948 42.32 42.32 42.32z"/><path d="M203.284 270.432l-.881 20.346-27.832-14.953-.722-2.583-.949-12.761 30.384 9.951zM5.324 270.432l.926 20.346 29.253-14.953.76-2.583.997-12.761-31.936 9.951z"/><path d="M118.678 158.089h-35.98l-19.921-40.95-1.024-14.729 2.165-.15.995 14.308 19.144 39.35h33.468l24.55-36.29 5.226-16.023 2.065.672-5.408 16.441-25.28 37.371z"/></svg><svg viewBox="0 0 81 80" id="benefits__item-icon1" xmlns="http://www.w3.org/2000/svg"><path d="M48.313 12.969a1.563 1.563 0 100 3.126 1.563 1.563 0 000-3.126zM32.688 12.969a1.563 1.563 0 100 3.126 1.563 1.563 0 000-3.126z"/><path d="M74.425 46.7c1.342-2.013 2.013-4.524 2.013-6.7 0-3.28-1.458-6.329-3.959-8.395.554-1.323.834-2.698.834-4.105 0-4.352-2.54-8.407-6.317-10.3.573-4.752-2.523-9.108-7.112-10.22C58.087 2.83 54.09 0 49.875 0c-3.923 0-7.442 2.288-9.375 5.628C38.567 2.288 35.048 0 31.125 0c-4.215 0-8.213 2.829-10.009 6.98-4.616 1.12-7.684 5.497-7.112 10.22-3.776 1.893-6.316 5.948-6.316 10.3 0 1.407.28 2.782.833 4.105A10.853 10.853 0 004.562 40c0 2.188.677 4.696 2.013 6.7a10.84 10.84 0 00-2.013 6.269c0 2.908 1.18 5.68 3.266 7.737-1.073 6.483 4.098 13.044 10.797 13.044.048 0 .096 0 .143-.002C20.988 77.579 25.112 80 29.562 80c4.64 0 8.784-2.784 10.938-6.796C42.654 77.216 46.799 80 51.438 80c4.45 0 8.573-2.42 10.794-6.252l.143.002c5.929 0 10.938-5.223 10.938-11.406 0-.527-.047-1.068-.141-1.638 2.086-2.058 3.266-4.828 3.266-7.737 0-2.243-.707-4.427-2.013-6.269zM38.938 23.653a6.21 6.21 0 00-3.126-.84 1.562 1.562 0 100 3.125 3.129 3.129 0 013.126 3.125v29.713a12.471 12.471 0 00-9.376-4.245 1.563 1.563 0 000 3.125c5.17 0 9.375 4.206 9.375 9.375 0 5.336-4.293 9.844-9.374 9.844-3.618 0-6.948-2.14-8.485-5.45a1.563 1.563 0 00-1.593-.895c-.11.013-.22.028-.33.043-4.448.608-9.455-4.428-8.1-10.06a1.562 1.562 0 00-.52-1.567c-1.81-1.506-2.848-3.685-2.848-5.977 0-1.418.401-2.805 1.147-4.02 1.874 1.535 4.205 2.457 6.666 2.457a1.562 1.562 0 100-3.125c-4.24 0-7.813-3.87-7.813-8.281 0-2.676 1.364-5.137 3.65-6.585a1.562 1.562 0 00.522-2.09c-.694-1.225-1.046-2.512-1.046-3.825 0-4.217 3.437-8.281 7.812-8.281 4.162 0 7.813 3.87 7.813 8.281a1.562 1.562 0 103.125 0c0-6.183-5.01-11.406-10.938-11.406-.523 0-1.043.042-1.559.122 0-.04-.003-.08-.003-.122 0-3.487 2.83-6.25 6.25-6.25 1.669 0 3.239.65 4.42 1.83a1.563 1.563 0 002.209-2.21 9.311 9.311 0 00-5.183-2.634c1.378-2.045 3.67-3.705 6.366-3.705 4.162 0 7.813 3.87 7.813 8.281v12.247zM65.5 51.406c2.46 0 4.792-.922 6.666-2.457a7.689 7.689 0 011.147 4.02c0 2.292-1.039 4.47-2.849 5.977-.457.38-.658.988-.52 1.566.166.688.243 1.27.243 1.832 0 4.85-4.386 8.77-8.341 8.229-.11-.015-.22-.03-.33-.043a1.561 1.561 0 00-1.594.895c-1.537 3.31-4.867 5.45-8.484 5.45-5.082 0-9.376-4.508-9.376-9.844 0-5.17 4.206-9.375 9.376-9.375a1.563 1.563 0 000-3.125c-3.731 0-7.083 1.645-9.376 4.245V29.062a3.129 3.129 0 013.126-3.125 1.563 1.563 0 000-3.125 6.21 6.21 0 00-3.126.841V11.406c0-4.411 3.651-8.281 7.813-8.281 2.696 0 4.987 1.66 6.365 3.705a9.312 9.312 0 00-5.182 2.633 1.562 1.562 0 102.209 2.211 6.216 6.216 0 014.42-1.83c3.437 0 6.25 2.779 6.25 6.25 0 .041-.003.081-.003.122a10.14 10.14 0 00-1.559-.122c-5.929 0-10.938 5.223-10.938 11.406a1.563 1.563 0 003.126 0c0-4.411 3.65-8.281 7.812-8.281 4.372 0 7.813 4.062 7.813 8.281 0 1.313-.353 2.6-1.047 3.825a1.563 1.563 0 00.523 2.09c2.285 1.448 3.648 3.91 3.648 6.585 0 4.427-3.584 8.281-7.812 8.281a1.563 1.563 0 000 3.125z"/><path d="M35.414 33.446a1.562 1.562 0 00-2.206-.123c-5.01 4.482-13.02.9-13.02-5.823a1.562 1.562 0 10-3.125 0c0 5.424 3.97 9.937 9.156 10.79a4.696 4.696 0 01-4.469 3.273 1.562 1.562 0 100 3.124c3.806 0 6.983-2.735 7.672-6.344a10.918 10.918 0 005.87-2.691 1.562 1.562 0 00.122-2.206zM18.625 60.781a1.563 1.563 0 000 3.125c4.162 0 7.813 3.87 7.813 8.282a1.562 1.562 0 103.125 0c0-6.183-5.01-11.407-10.938-11.407zM31.125 48.281c-5.295 0-9.84 2.904-12.235 7.127a1.563 1.563 0 002.719 1.54 10.913 10.913 0 019.516-5.542 1.562 1.562 0 100-3.125zM59.25 41.563a4.696 4.696 0 01-4.469-3.273c5.187-.853 9.157-5.366 9.157-10.79a1.563 1.563 0 00-3.126 0c0 4.308-3.504 7.813-7.812 7.813a7.803 7.803 0 01-5.208-1.99 1.562 1.562 0 10-2.084 2.329 10.92 10.92 0 005.87 2.691c.69 3.609 3.866 6.344 7.672 6.344a1.563 1.563 0 000-3.124zM62.375 60.781c-5.929 0-10.938 5.224-10.938 11.407a1.563 1.563 0 003.126 0c0-4.412 3.65-8.282 7.812-8.282a1.563 1.563 0 000-3.125zM62.11 55.408c-2.388-4.213-6.928-7.127-12.235-7.127a1.563 1.563 0 000 3.125c4.11 0 7.65 2.252 9.516 5.543a1.563 1.563 0 002.718-1.541z"/></svg><svg viewBox="0 0 81 80" id="benefits__item-icon2" xmlns="http://www.w3.org/2000/svg"><g clip-path="url(#cclip0)"><path d="M75.5 15h-55a5 5 0 00-5 5v55a5 5 0 005 5h55a5 5 0 005-5V20a5 5 0 00-5-5zm0 60h-55V20h55v55z"/><path d="M5.5 5h55v5h5V5a5 5 0 00-5-5h-55a5 5 0 00-5 5v55a5 5 0 005 5h5v-5h-5V5zM28 62.5h40a2.5 2.5 0 001.775-4.275l-10-10a2.5 2.5 0 00-3.525 0L53 51.475l-8.225-8.225a2.5 2.5 0 00-3.525 0l-15 15A2.5 2.5 0 0028 62.5zM60.5 42.5a5 5 0 100-10 5 5 0 000 10z"/></g><defs><clipPath id="cclip0"><path transform="translate(.5)" d="M0 0h80v80H0z"/></clipPath></defs></svg><svg viewBox="0 0 81 80" id="benefits__item-icon3" xmlns="http://www.w3.org/2000/svg"><g clip-path="url(#dclip0)"><path d="M77.838 18.327c-1.597-1.673-3.802-2.661-6.311-2.661H58.903v-.152c0-1.902-.76-3.727-2.053-4.943a6.958 6.958 0 00-4.943-2.054H29.093c-1.977 0-3.726.76-5.019 2.054a6.958 6.958 0 00-2.053 4.943v.152H9.473c-2.51 0-4.714.988-6.311 2.661C1.565 19.924.5 22.205.5 24.64v37.87c0 2.51.989 4.716 2.662 6.313 1.597 1.596 3.878 2.661 6.311 2.661h62.054c2.51 0 4.714-.989 6.311-2.662 1.597-1.596 2.662-3.878 2.662-6.311V24.639c0-2.51-.989-4.715-2.662-6.312zM76.546 62.51h-.076a4.882 4.882 0 01-1.445 3.498 4.882 4.882 0 01-3.498 1.445H9.473a4.882 4.882 0 01-3.498-1.445A4.882 4.882 0 014.53 62.51V24.639c0-1.369.533-2.585 1.445-3.498a4.882 4.882 0 013.498-1.445H24.15c1.14 0 2.053-.913 2.053-2.053v-2.206c0-.836.305-1.596.837-2.129.532-.532 1.293-.836 2.13-.836h22.737c.836 0 1.597.304 2.13.836.531.533.836 1.293.836 2.13v2.205c0 1.14.912 2.053 2.053 2.053h14.677c1.369 0 2.585.532 3.498 1.445a4.882 4.882 0 011.445 3.498v37.87z"/><path d="M40.5 24.867a18.74 18.74 0 00-13.232 5.476 18.557 18.557 0 00-5.475 13.231 18.74 18.74 0 005.475 13.232c3.422 3.422 8.061 5.476 13.232 5.476a18.74 18.74 0 0013.232-5.476c3.422-3.422 5.475-8.06 5.475-13.232a18.74 18.74 0 00-5.475-13.231A18.74 18.74 0 0040.5 24.867zm10.342 29.126c-2.661 2.585-6.311 4.258-10.342 4.258-4.03 0-7.68-1.673-10.342-4.258-2.662-2.662-4.259-6.312-4.259-10.343 0-4.03 1.673-7.68 4.259-10.342C32.82 30.647 36.47 29.05 40.5 29.05s7.68 1.673 10.342 4.258c2.662 2.662 4.259 6.312 4.259 10.343.076 4.03-1.597 7.68-4.259 10.342zM67.572 32.243a3.726 3.726 0 100-7.452 3.726 3.726 0 000 7.452z"/></g><defs><clipPath id="dclip0"><path transform="translate(.5)" d="M0 0h80v80H0z"/></clipPath></defs></svg><svg viewBox="0 0 28 28" id="email" xmlns="http://www.w3.org/2000/svg"><path d="M23.333 4.667H4.667A2.33 2.33 0 002.345 7l-.012 14a2.34 2.34 0 002.334 2.333h18.666A2.34 2.34 0 0025.667 21V7a2.34 2.34 0 00-2.334-2.333zm0 4.666L14 15.166 4.667 9.333V7L14 12.833 23.333 7v2.333z"/></svg><svg viewBox="0 0 28 28" id="facebook" xmlns="http://www.w3.org/2000/svg"><g clip-path="url(#fclip0)"><path d="M18.663 4.65h2.556V.196C20.78.137 19.262 0 17.495 0c-3.685 0-6.21 2.318-6.21 6.579V10.5H7.218v4.977h4.067V28h4.986V15.478h3.903l.62-4.977H16.27V7.072c.002-1.438.389-2.423 2.393-2.423z"/></g><defs><clipPath id="fclip0"><path d="M0 0h28v28H0z"/></clipPath></defs></svg><svg viewBox="0 0 28 28" id="instagram" xmlns="http://www.w3.org/2000/svg"><g clip-path="url(#gclip0)"><path d="M27.973 8.232c-.066-1.488-.307-2.51-.651-3.397a6.833 6.833 0 00-1.62-2.483A6.892 6.892 0 0023.226.738c-.892-.344-1.91-.585-3.397-.65C18.33.016 17.853 0 14.052 0c-3.802 0-4.277.016-5.77.082-1.488.066-2.511.306-3.397.65A6.832 6.832 0 002.4 2.353 6.894 6.894 0 00.788 4.83C.443 5.722.202 6.739.137 8.227.066 9.725.049 10.2.049 14.003c0 3.801.017 4.277.082 5.77.066 1.488.307 2.511.651 3.397.356.941.908 1.783 1.62 2.483a6.89 6.89 0 002.477 1.614c.892.345 1.909.585 3.397.65 1.493.067 1.97.083 5.77.083 3.802 0 4.278-.016 5.771-.082 1.488-.066 2.51-.306 3.397-.651a7.162 7.162 0 004.097-4.097c.344-.891.585-1.909.65-3.397.066-1.493.083-1.969.083-5.77 0-3.802-.006-4.278-.071-5.77zM25.45 19.664c-.06 1.367-.29 2.106-.481 2.598a4.645 4.645 0 01-2.659 2.659c-.492.191-1.236.42-2.598.48-1.477.067-1.92.083-5.656.083-3.736 0-4.184-.016-5.655-.082-1.368-.06-2.106-.29-2.599-.481a4.31 4.31 0 01-1.608-1.045 4.354 4.354 0 01-1.044-1.608c-.192-.493-.422-1.236-.482-2.598-.065-1.477-.082-1.92-.082-5.656 0-3.736.017-4.185.082-5.656.06-1.368.29-2.106.482-2.598.224-.607.58-1.16 1.05-1.608.454-.465 1-.821 1.608-1.045.492-.192 1.236-.421 2.598-.481 1.477-.066 1.92-.083 5.656-.083 3.741 0 4.184.017 5.656.083 1.367.06 2.106.29 2.598.48.607.225 1.16.58 1.608 1.046.465.454.82 1 1.045 1.608.191.492.42 1.236.481 2.598.066 1.477.082 1.92.082 5.656 0 3.736-.016 4.173-.082 5.65z"/><path d="M14.052 6.81a7.195 7.195 0 00-7.193 7.192 7.195 7.195 0 007.193 7.193 7.194 7.194 0 007.193-7.193 7.194 7.194 0 00-7.193-7.192zm0 11.858a4.667 4.667 0 11.001-9.333 4.667 4.667 0 01-.001 9.333zM23.209 6.526a1.68 1.68 0 11-3.36 0 1.68 1.68 0 013.36 0z"/></g><defs><clipPath id="gclip0"><path d="M0 0h28v28H0z"/></clipPath></defs></svg><svg viewBox="0 0 1200 60" preserveAspectRatio="none" id="link__graphic"><path d="M0 56.5h399.333C448.336 56.5 513.994 46 597 46c77.327 0 135 10.5 200.999 10.5H1200"/></svg><svg viewBox="0 0 28 28" id="phone" xmlns="http://www.w3.org/2000/svg"><path d="M7.723 12.588a17.673 17.673 0 007.689 7.689l2.566-2.567a1.16 1.16 0 011.19-.28c1.307.432 2.719.665 4.165.665a1.17 1.17 0 011.167 1.167v4.071a1.17 1.17 0 01-1.167 1.167C12.378 24.5 3.5 15.622 3.5 4.667A1.17 1.17 0 014.667 3.5H8.75a1.17 1.17 0 011.167 1.167c0 1.458.233 2.858.665 4.165a1.17 1.17 0 01-.292 1.19l-2.567 2.566z"/></svg><svg viewBox="0 0 854 818" id="space" xmlns="http://www.w3.org/2000/svg"><g clip-path="url(#jclip0_1099_2)"><path d="M707.501 464.249C599.784 627.243 549.122 818 353.751 818 158.379 818 0 659.62 0 464.249c0-195.371 176.535-271.504 353.751-353.75 575.606-267.142 594.773-10.956 353.75 353.75z"/><path d="M669.522 160.415c36.557 0 66.192-29.636 66.192-66.193s-29.635-66.193-66.192-66.193c-36.557 0-66.193 29.636-66.193 66.193s29.636 66.193 66.193 66.193z"/><path d="M663.011 56.243a7.596 7.596 0 100-15.192 7.596 7.596 0 000 15.192zM676.033 132.201a7.595 7.595 0 100-15.19 7.595 7.595 0 000 15.19zM705.331 87.711a5.426 5.426 0 100-10.852 5.426 5.426 0 000 10.852zM643.479 117.01c9.589 0 17.362-7.774 17.362-17.363 0-9.588-7.773-17.361-17.362-17.361-9.589 0-17.362 7.773-17.362 17.361 0 9.589 7.773 17.363 17.362 17.363z"/><path d="M441.646 207.075c5.993 0 10.851-4.858 10.851-10.851 0-5.993-4.858-10.852-10.851-10.852-5.993 0-10.852 4.859-10.852 10.852s4.859 10.851 10.852 10.851zM732.459 235.288c5.993 0 10.851-4.858 10.851-10.851 0-5.993-4.858-10.851-10.851-10.851-5.993 0-10.851 4.858-10.851 10.851 0 5.993 4.858 10.851 10.851 10.851z"/><path d="M603.329 251.565a6.51 6.51 0 100-13.022 6.51 6.51 0 000 13.022zM102.002 456.654a6.51 6.51 0 10-.001-13.021 6.51 6.51 0 00.001 13.021zM487.221 631.359a6.51 6.51 0 100-13.022 6.51 6.51 0 000 13.022z"/><path d="M589.224 438.245l-3.249 3.228-3.228-3.25-2.166 2.152 3.227 3.25-3.25 3.227 2.152 2.167 3.25-3.228 3.228 3.25 2.166-2.152-3.228-3.25 3.25-3.227-2.152-2.167z"/><path d="M184.473 355.776l-3.25 3.227-3.227-3.249-2.167 2.151 3.228 3.25-3.25 3.228 2.152 2.166 3.249-3.227 3.228 3.249 2.167-2.151-3.228-3.25 3.25-3.228-2.152-2.166zM751.993 155.028l-3.25 3.227-3.227-3.249-2.167 2.151 3.228 3.25-3.25 3.228 2.152 2.166 3.25-3.227 3.227 3.249 2.167-2.151-3.228-3.25 3.25-3.228-2.152-2.166zM158.43 544.588l-3.25 3.227-3.227-3.25-2.167 2.152 3.228 3.25-3.25 3.227 2.152 2.167 3.249-3.228 3.228 3.25 2.167-2.152-3.228-3.249 3.25-3.228-2.152-2.166zM495.904 245.093l-3.25 3.228-3.228-3.25-2.166 2.152 3.227 3.249-3.249 3.228 2.151 2.167 3.25-3.228 3.228 3.25 2.166-2.152-3.227-3.25 3.249-3.227-2.151-2.167z"/><path opacity=".8" d="M518.442 405.991l32.971-38.598 32.97-38.599 18.613-21.789c1.029-1.206-.56-3.087-1.589-1.881l-32.971 38.598-32.971 38.599-18.612 21.79c-1.03 1.205.559 3.086 1.589 1.88z"/><path opacity=".8" d="M459.845 544.887l32.971-38.598 32.97-38.599 18.613-21.789c1.03-1.206-.559-3.087-1.589-1.881l-32.971 38.598-32.97 38.599-18.613 21.789c-1.03 1.206.56 3.087 1.589 1.881z"/></g><defs><linearGradient id="jpaint0_linear_1099_2" x1="516.519" y1="355.558" x2="603.329" y2="355.558" gradientUnits="userSpaceOnUse"><stop stop-color="#fff"/><stop offset="1" stop-color="#fff" stop-opacity=".3"/></linearGradient><linearGradient id="jpaint1_linear_1099_2" x1="55258.8" y1="54868.9" x2="62794.7" y2="54868.9" gradientUnits="userSpaceOnUse"><stop stop-color="#fff"/><stop offset="1" stop-color="#fff" stop-opacity=".3"/></linearGradient><clipPath id="jclip0_1099_2"><path d="M0 0h853.297v818H0z"/></clipPath></defs></svg><svg viewBox="0 0 28 28" id="twitter" xmlns="http://www.w3.org/2000/svg"><g clip-path="url(#kclip0)"><path d="M28 5.318c-1.041.457-2.15.76-3.308.907a5.708 5.708 0 002.526-3.173 11.472 11.472 0 01-3.64 1.39 5.739 5.739 0 00-9.93 3.925c0 .455.039.892.133 1.309C9.01 9.443 4.786 7.156 1.95 3.67a5.78 5.78 0 00-.785 2.902 5.749 5.749 0 002.55 4.77 5.668 5.668 0 01-2.594-.707v.064c0 2.789 1.99 5.106 4.599 5.64a5.731 5.731 0 01-1.505.189c-.368 0-.739-.021-1.087-.098.744 2.273 2.854 3.944 5.364 3.998a11.534 11.534 0 01-7.117 2.449c-.471 0-.923-.021-1.374-.079a16.16 16.16 0 008.806 2.576c10.563 0 16.338-8.75 16.338-16.334 0-.254-.009-.5-.021-.742A11.452 11.452 0 0028 5.319z"/></g><defs><clipPath id="kclip0"><path d="M0 0h28v28H0z"/></clipPath></defs></svg><svg viewBox="0 0 28 28" id="vk" xmlns="http://www.w3.org/2000/svg"><g clip-path="url(#lclip0)"><path d="M23.234 15.2c-.453-.572-.323-.826 0-1.337.006-.006 3.743-5.17 4.128-6.92l.002-.002c.191-.638 0-1.107-.925-1.107h-3.061c-.78 0-1.139.402-1.331.853 0 0-1.56 3.73-3.764 6.15-.712.698-1.04.922-1.43.922-.19 0-.488-.224-.488-.862V6.941c0-.765-.218-1.107-.863-1.107h-4.814c-.489 0-.78.357-.78.69 0 .725 1.103.892 1.217 2.934v4.43c0 .97-.176 1.149-.567 1.149-1.04 0-3.566-3.747-5.063-8.034-.302-.832-.597-1.168-1.383-1.168H1.05c-.874 0-1.05.403-1.05.853 0 .796 1.04 4.752 4.84 9.979 2.531 3.567 6.096 5.5 9.34 5.5 1.95 0 2.187-.429 2.187-1.168 0-3.409-.176-3.73.8-3.73.453 0 1.232.224 3.052 1.944 2.08 2.04 2.422 2.954 3.587 2.954h3.061c.873 0 1.315-.429 1.06-1.276-.581-1.781-4.515-5.446-4.693-5.691z"/></g><defs><clipPath id="lclip0"><path d="M0 0h28v28H0z"/></clipPath></defs></svg></svg>